<svg width="72" height="72" viewBox="0 0 72 72" fill="none" xmlns="http://www.w3.org/2000/svg">
<rect width="72" height="72" rx="36" fill="#FF4D94" fill-opacity="0.1"/>
<rect x="31" y="25" width="7" height="7" rx="3.5" fill="#FF4D94"/>
<rect opacity="0.5" x="31" y="33" width="7" height="7" rx="3.5" fill="#FF4D94"/>
<rect opacity="0.25" x="31" y="41" width="7" height="7" rx="3.5" fill="#FF4D94"/>
<rect x="45.266" y="28.266" width="15.0851" height="15.0851" rx="1.5" fill="#FF4D94" fill-opacity="0.2" stroke="#FF4D94" stroke-dasharray="3 3"/>
<rect x="48" y="31" width="10" height="10" rx="2" fill="#FF4D94"/>
<path d="M15.7012 37.7734H12.127L11.3242 40H10.1641L13.4219 31.4688H14.4062L17.6699 40H16.5156L15.7012 37.7734ZM12.4668 36.8477H15.3672L13.9141 32.8574L12.4668 36.8477ZM22.5625 40C22.5 39.875 22.4492 39.6523 22.4102 39.332C21.9062 39.8555 21.3047 40.1172 20.6055 40.1172C19.9805 40.1172 19.4668 39.9414 19.0645 39.5898C18.666 39.2344 18.4668 38.7852 18.4668 38.2422C18.4668 37.582 18.7168 37.0703 19.2168 36.707C19.7207 36.3398 20.4277 36.1562 21.3379 36.1562H22.3926V35.6582C22.3926 35.2793 22.2793 34.9785 22.0527 34.7559C21.8262 34.5293 21.4922 34.416 21.0508 34.416C20.6641 34.416 20.3398 34.5137 20.0781 34.709C19.8164 34.9043 19.6855 35.1406 19.6855 35.418H18.5957C18.5957 35.1016 18.707 34.7969 18.9297 34.5039C19.1562 34.207 19.4609 33.9727 19.8438 33.8008C20.2305 33.6289 20.6543 33.543 21.1152 33.543C21.8457 33.543 22.418 33.7266 22.832 34.0938C23.2461 34.457 23.4609 34.959 23.4766 35.5996V38.5176C23.4766 39.0996 23.5508 39.5625 23.6992 39.9062V40H22.5625ZM20.7637 39.1738C21.1035 39.1738 21.4258 39.0859 21.7305 38.9102C22.0352 38.7344 22.2559 38.5059 22.3926 38.2246V36.9238H21.543C20.2148 36.9238 19.5508 37.3125 19.5508 38.0898C19.5508 38.4297 19.6641 38.6953 19.8906 38.8867C20.1172 39.0781 20.4082 39.1738 20.7637 39.1738Z" fill="#FF4D94"/>
</svg>
