<svg width="72" height="72" viewBox="0 0 72 72" fill="none" xmlns="http://www.w3.org/2000/svg">
<rect width="72" height="72" rx="36" fill="#9F7CFF" fill-opacity="0.2"/>
<rect x="21.3763" y="21.3763" width="28.9032" height="28.9032" rx="3.5" fill="#9F7CFF" fill-opacity="0.3"/>
<rect x="21.8763" y="21.8763" width="27.9032" height="27.9032" rx="3" stroke="#9F7CFF" stroke-opacity="0.8" stroke-dasharray="2 2"/>
<rect x="48.5591" y="20" width="3.44086" height="3.44086" rx="1" stroke="#9F7CFF" stroke-opacity="0.8"/>
<rect x="48.5591" y="48.9032" width="3.44086" height="3.44086" rx="1" stroke="#9F7CFF" stroke-opacity="0.8"/>
<rect x="20" y="48.9032" width="3.44086" height="3.44086" rx="1" stroke="#9F7CFF" stroke-opacity="0.8"/>
<rect x="20" y="20" width="3.44086" height="3.44086" rx="1" stroke="#9F7CFF" stroke-opacity="0.8"/>
<path d="M24.6464 35.6464C24.4512 35.8417 24.4512 36.1583 24.6464 36.3536L27.8284 39.5355C28.0237 39.7308 28.3403 39.7308 28.5355 39.5355C28.7308 39.3403 28.7308 39.0237 28.5355 38.8284L25.7071 36L28.5355 33.1716C28.7308 32.9763 28.7308 32.6597 28.5355 32.4645C28.3403 32.2692 28.0237 32.2692 27.8284 32.4645L24.6464 35.6464ZM31 35.5L25 35.5L25 36.5L31 36.5L31 35.5Z" fill="#9F7CFF" fill-opacity="0.8"/>
<path d="M47.3536 36.3536C47.5488 36.1583 47.5488 35.8417 47.3536 35.6464L44.1716 32.4645C43.9763 32.2692 43.6597 32.2692 43.4645 32.4645C43.2692 32.6597 43.2692 32.9763 43.4645 33.1716L46.2929 36L43.4645 38.8284C43.2692 39.0237 43.2692 39.3403 43.4645 39.5355C43.6597 39.7308 43.9763 39.7308 44.1716 39.5355L47.3536 36.3536ZM41 36.5L47 36.5L47 35.5L41 35.5L41 36.5Z" fill="#9F7CFF" fill-opacity="0.8"/>
<rect x="32" y="26" width="8" height="20" rx="2" fill="#9F7CFF" fill-opacity="0.8"/>
</svg>
