<svg width="48" height="48" viewBox="0 0 48 48" fill="none" xmlns="http://www.w3.org/2000/svg">
<path opacity="0.2" fill-rule="evenodd" clip-rule="evenodd" d="M44 24.0015C44 35.0474 35.0436 44 24 44C12.9533 44 4 35.0474 4 24.0015C4 12.9557 12.9533 4 24 4C35.0436 4 44 12.9557 44 24.0015" fill="#CB66FF"/>
<path fill-rule="evenodd" clip-rule="evenodd" d="M24 25C24 27.76 21.76 30 19 30C16.24 30 14 27.76 14 25C14 22.24 16.24 20 19 20C21.76 20 24 22.24 24 25" fill="#CB66FF"/>
<rect x="25" y="20" width="9" height="4" rx="0.5" fill="#CB66FF"/>
<rect opacity="0.69613" x="25" y="25" width="9" height="4" rx="0.5" fill="#CB66FF"/>
</svg>
