<svg width="48" height="48" viewBox="0 0 48 48" fill="none" xmlns="http://www.w3.org/2000/svg">
<path opacity="0.104197" fill-rule="evenodd" clip-rule="evenodd" d="M24 4C35.0467 4 44 12.9564 44 24.0031C44 35.0497 35.0467 44 24 44C12.9533 44 4 35.0497 4 24.0031C4 12.9564 12.9533 4 24 4" fill="#88FF00"/>
<path fill-rule="evenodd" clip-rule="evenodd" d="M23.5767 32.9448C23.8008 33.2009 24.1992 33.2009 24.4233 32.9448L32.1837 24.0758C32.5019 23.7121 32.2437 23.1429 31.7604 23.1429H16.2396C15.7563 23.1429 15.4981 23.7121 15.8163 24.0758L23.5767 32.9448Z" fill="#88FF00"/>
<path opacity="0.503679" fill-rule="evenodd" clip-rule="evenodd" d="M23.5677 25.1957C23.7926 25.4655 24.2071 25.4655 24.432 25.1957L29.6596 18.9226C29.9649 18.5562 29.7044 17.9999 29.2275 17.9999H18.7722C18.2953 17.9999 18.0348 18.5562 18.3401 18.9226L23.5677 25.1957Z" fill="#88FF00"/>
</svg>
