<svg width="48" height="48" viewBox="0 0 48 48" fill="none" xmlns="http://www.w3.org/2000/svg">
<path opacity="0.0955896" fill-rule="evenodd" clip-rule="evenodd" d="M24 4C35.0467 4 44 12.9564 44 24.0031C44 35.0497 35.0467 44 24 44C12.9533 44 4 35.0497 4 24.0031C4 12.9564 12.9533 4 24 4" fill="#E2F200"/>
<path opacity="0.303529" fill-rule="evenodd" clip-rule="evenodd" d="M24.4242 12.765C24.1648 12.6029 23.8356 12.6029 23.5762 12.765L17.2228 16.7359C16.5412 17.1619 16.843 18.2143 17.6468 18.2143H30.3536C31.1574 18.2143 31.4592 17.1619 30.7776 16.7359L24.4242 12.765Z" fill="#E2F200"/>
<path opacity="0.303529" fill-rule="evenodd" clip-rule="evenodd" d="M13.543 30.4697C13.5323 30.7754 13.6969 31.0605 13.967 31.2041L20.5826 34.7209C21.2923 35.0981 22.0528 34.3105 21.651 33.6145L15.2975 22.61C14.8957 21.914 13.8333 22.1788 13.8052 22.982L13.543 30.4697Z" fill="#E2F200"/>
<path opacity="0.303529" fill-rule="evenodd" clip-rule="evenodd" d="M34.457 30.4697C34.4677 30.7754 34.3031 31.0605 34.033 31.2041L27.4174 34.7209C26.7077 35.0981 25.9472 34.3105 26.349 33.6145L32.7025 22.61C33.1043 21.914 34.1667 22.1788 34.1948 22.982L34.457 30.4697Z" fill="#E2F200"/>
<path fill-rule="evenodd" clip-rule="evenodd" d="M24.6973 32.689C24.3914 33.2327 23.6086 33.2327 23.3027 32.689L16.7956 21.1208C16.4956 20.5875 16.881 19.9286 17.4929 19.9286H30.5071C31.119 19.9286 31.5044 20.5875 31.2044 21.1208L24.6973 32.689Z" fill="#E2F200"/>
</svg>
