<svg width="48" height="48" viewBox="0 0 48 48" fill="none" xmlns="http://www.w3.org/2000/svg">
<path opacity="0.2" fill-rule="evenodd" clip-rule="evenodd" d="M44 24C44 35.0467 35.0436 44 24 44C12.9533 44 4 35.0467 4 24C4 12.9533 12.9533 4 24 4C35.0436 4 44 12.9533 44 24" fill="#00D4FF"/>
<path fill-rule="evenodd" clip-rule="evenodd" d="M27.0093 24.9988C27.0093 26.6545 25.6656 28 24.0093 28C22.3529 28 21.0093 26.6545 21.0093 24.9988C21.0093 23.3431 22.3529 22 24.0093 22C25.6656 22 27.0093 23.3431 27.0093 24.9988" fill="#00D4FF"/>
<path opacity="0.796284" fill-rule="evenodd" clip-rule="evenodd" d="M27.0093 15.0747V25H21.0093L21.0093 15.0697L21.0093 15H21.0101C21.0211 14.501 21.1516 13.9974 21.4132 13.5343C22.241 12.0668 24.0751 11.5643 25.511 12.4118C26.4487 12.9671 26.9838 13.9647 27.0084 15H27.0093V15.0747Z" fill="#00D4FF"/>
<path opacity="0.499273" fill-rule="evenodd" clip-rule="evenodd" d="M31.4847 32.8107L22.8891 27.8481L25.8891 22.6519L34.489 27.6171L34.5494 27.6519L34.549 27.6526C34.9756 27.9117 35.3465 28.2765 35.6168 28.7345C36.4737 30.1853 35.9919 32.0248 34.5399 32.8446C33.5902 33.379 32.4588 33.3437 31.5498 32.8473L31.5494 32.8481L31.4847 32.8107Z" fill="#00D4FF"/>
<path opacity="0.49975" fill-rule="evenodd" clip-rule="evenodd" d="M16.5334 32.8107L25.1289 27.8481L22.1289 22.6519L13.529 27.6171L13.4687 27.6519L13.4691 27.6526C13.0424 27.9117 12.6716 28.2765 12.4013 28.7345C11.5444 30.1853 12.0262 32.0248 13.4781 32.8446C14.4279 33.379 15.5593 33.3437 16.4682 32.8473L16.4687 32.8481L16.5334 32.8107Z" fill="#00D4FF"/>
</svg>
