<svg width="48" height="48" viewBox="0 0 48 48" fill="none" xmlns="http://www.w3.org/2000/svg">
<path opacity="0.15" fill-rule="evenodd" clip-rule="evenodd" d="M44 24C44 35.0467 35.0467 44 24 44C12.9533 44 4 35.0467 4 24C4 12.9533 12.9533 4 24 4C35.0467 4 44 12.9533 44 24" fill="#00FFEE"/>
<path fill-rule="evenodd" clip-rule="evenodd" d="M28.6155 18.6154C28.6155 21.1636 26.5478 23.2308 24.0013 23.2308C21.4502 23.2308 19.3848 21.1636 19.3848 18.6154C19.3848 16.0672 21.4502 14 24.0013 14C26.5478 14 28.6155 16.0672 28.6155 18.6154" fill="#00FFEE"/>
<path fill-rule="evenodd" clip-rule="evenodd" d="M23.2308 27.8473C23.2308 30.3961 21.163 32.4615 18.6142 32.4615C16.0654 32.4615 14 30.3961 14 27.8473C14 25.2984 16.0654 23.2307 18.6142 23.2307C21.163 23.2307 23.2308 25.2984 23.2308 27.8473" fill="#00FFEE" fill-opacity="0.7"/>
<path fill-rule="evenodd" clip-rule="evenodd" d="M33.9998 27.8473C33.9998 30.3961 31.9321 32.4615 29.3833 32.4615C26.8345 32.4615 24.769 30.3961 24.769 27.8473C24.769 25.2984 26.8345 23.2307 29.3833 23.2307C31.9321 23.2307 33.9998 25.2984 33.9998 27.8473" fill="#00FFEE" fill-opacity="0.5"/>
</svg>
