<svg width="48" height="48" viewBox="0 0 48 48" fill="none" xmlns="http://www.w3.org/2000/svg">
<path opacity="0.103834" fill-rule="evenodd" clip-rule="evenodd" d="M44 23.9985C44 35.0443 35.0467 44 24 44C12.9533 44 4 35.0443 4 23.9985C4 12.9526 12.9533 4 24 4C35.0467 4 44 12.9526 44 23.9985" fill="#00FF86"/>
<path opacity="0.4" fill-rule="evenodd" clip-rule="evenodd" d="M27.8027 21.9013C27.8027 26.2667 24.264 29.8027 19.9013 29.8027C15.536 29.8027 12 26.2667 12 21.9013C12 17.5387 15.536 14 19.9013 14C24.264 14 27.8027 17.5387 27.8027 21.9013" fill="#00FF86"/>
<path opacity="0.4" fill-rule="evenodd" clip-rule="evenodd" d="M35.7035 21.9013C35.7035 26.2667 32.1649 29.8027 27.8022 29.8027C23.4369 29.8027 19.9009 26.2667 19.9009 21.9013C19.9009 17.5387 23.4369 14 27.8022 14C32.1649 14 35.7035 17.5387 35.7035 21.9013" fill="#00FF86"/>
<path opacity="0.4" fill-rule="evenodd" clip-rule="evenodd" d="M32.145 28.4416C32.145 32.8043 28.6063 36.3429 24.2436 36.3429C19.8783 36.3429 16.3423 32.8043 16.3423 28.4416C16.3423 24.0763 19.8783 20.5403 24.2436 20.5403C28.6063 20.5403 32.145 24.0763 32.145 28.4416" fill="#00FF86"/>
<path fill-rule="evenodd" clip-rule="evenodd" d="M27.8027 21.9014C27.8027 21.728 27.7627 21.5654 27.752 21.3947C26.6907 20.864 25.512 20.5387 24.2454 20.5387C22.64 20.5387 21.152 21.024 19.9067 21.8454C19.9067 21.864 19.9014 21.8827 19.9014 21.9014C19.9014 24.8187 21.4987 27.3387 23.8534 28.7067C26.2027 27.3387 27.8027 24.8187 27.8027 21.9014" fill="#00FF86"/>
</svg>
