<svg width="48" height="48" viewBox="0 0 48 48" fill="none" xmlns="http://www.w3.org/2000/svg">
<path opacity="0.104197" fill-rule="evenodd" clip-rule="evenodd" d="M44 24C44 35.0467 35.0436 44 24 44C12.9533 44 4 35.0467 4 24C4 12.9533 12.9533 4 24 4C35.0436 4 44 12.9533 44 24" fill="#00FF86"/>
<path fill-rule="evenodd" clip-rule="evenodd" d="M22.9014 16.2786C23.2914 15.8907 23.9215 15.8907 24.3115 16.2786L33.4999 25.4147C33.8931 25.8057 33.8931 26.442 33.4999 26.8329L24.3115 35.9691C23.9215 36.3569 23.2914 36.3569 22.9014 35.9691L13.713 26.8329C13.3198 26.442 13.3198 25.8057 13.713 25.4147L22.9014 16.2786Z" fill="#00FF87"/>
<path opacity="0.402457" fill-rule="evenodd" clip-rule="evenodd" d="M22.9014 11.9452C23.2914 11.5573 23.9215 11.5573 24.3115 11.9452L33.4999 21.0813C33.8931 21.4723 33.8931 22.1086 33.4999 22.4996L24.3115 31.6357C23.9215 32.0235 23.2914 32.0235 22.9014 31.6357L13.713 22.4996C13.3198 22.1086 13.3198 21.4723 13.713 21.0813L22.9014 11.9452Z" fill="#00FF87"/>
</svg>
