<svg width="48" height="48" viewBox="0 0 48 48" fill="none" xmlns="http://www.w3.org/2000/svg">
<path opacity="0.100745" fill-rule="evenodd" clip-rule="evenodd" d="M44 24.0015C44 35.0474 35.0443 44 23.9985 44C12.9526 44 4 35.0474 4 24.0015C4 12.9557 12.9526 4 23.9985 4C35.0443 4 44 12.9557 44 24.0015" fill="#00FF86"/>
<path fill-rule="evenodd" clip-rule="evenodd" d="M25.4142 15.5147C24.6329 16.2961 23.3666 16.2956 22.5858 15.5147C21.8045 14.7334 21.8045 13.4676 22.5858 12.6863C23.3666 11.9055 24.6329 11.905 25.4142 12.6863C26.1951 13.4672 26.1951 14.7339 25.4142 15.5147" fill="#00FF86"/>
<path opacity="0.501272" fill-rule="evenodd" clip-rule="evenodd" d="M20.4645 20.4644C19.6832 21.2458 18.4169 21.2453 17.6361 20.4644C16.8548 19.6831 16.8548 18.4173 17.6361 17.636C18.4169 16.8552 19.6832 16.8547 20.4645 17.636C21.2454 18.4169 21.2454 19.6836 20.4645 20.4644" fill="#00FF86"/>
<path opacity="0.195335" fill-rule="evenodd" clip-rule="evenodd" d="M15.5148 25.4143C14.7335 26.1956 13.4672 26.1951 12.6864 25.4143C11.905 24.6329 11.905 23.3672 12.6864 22.5858C13.4672 21.805 14.7335 21.8045 15.5148 22.5858C16.2956 23.3667 16.2956 24.6334 15.5148 25.4143" fill="#00FF86"/>
<path fill-rule="evenodd" clip-rule="evenodd" d="M25.4142 35.3137C24.6329 36.095 23.3666 36.0945 22.5858 35.3137C21.8045 34.5324 21.8045 33.2666 22.5858 32.4853C23.3666 31.7044 24.6329 31.7039 25.4142 32.4853C26.1951 33.2661 26.1951 34.5328 25.4142 35.3137" fill="#00FF86"/>
<path opacity="0.5" fill-rule="evenodd" clip-rule="evenodd" d="M30.3639 20.4644C29.5826 21.2458 28.3163 21.2453 27.5355 20.4644C26.7542 19.6831 26.7542 18.4173 27.5355 17.636C28.3163 16.8552 29.5826 16.8547 30.3639 17.636C31.1448 18.4169 31.1448 19.6836 30.3639 20.4644" fill="#00FF86"/>
<path fill-rule="evenodd" clip-rule="evenodd" d="M25.4142 25.4143C24.6329 26.1956 23.3666 26.1951 22.5858 25.4143C21.8045 24.6329 21.8045 23.3672 22.5858 22.5858C23.3666 21.805 24.6329 21.8045 25.4142 22.5858C26.1951 23.3667 26.1951 24.6334 25.4142 25.4143" fill="#00FF86"/>
<path opacity="0.501272" fill-rule="evenodd" clip-rule="evenodd" d="M20.4645 30.364C19.6832 31.1453 18.4169 31.1448 17.6361 30.364C16.8548 29.5827 16.8548 28.3169 17.6361 27.5356C18.4169 26.7547 19.6832 26.7542 20.4645 27.5356C21.2454 28.3164 21.2454 29.5831 20.4645 30.364" fill="#00FF86"/>
<path opacity="0.2" fill-rule="evenodd" clip-rule="evenodd" d="M35.3136 25.4143C34.5323 26.1956 33.266 26.1951 32.4852 25.4143C31.7039 24.6329 31.7039 23.3672 32.4852 22.5858C33.266 21.805 34.5323 21.8045 35.3136 22.5858C36.0945 23.3667 36.0945 24.6334 35.3136 25.4143" fill="#00FF86"/>
<path opacity="0.5" fill-rule="evenodd" clip-rule="evenodd" d="M30.3639 30.364C29.5826 31.1453 28.3163 31.1448 27.5355 30.364C26.7542 29.5827 26.7542 28.3169 27.5355 27.5356C28.3163 26.7547 29.5826 26.7542 30.3639 27.5356C31.1448 28.3164 31.1448 29.5831 30.3639 30.364" fill="#00FF86"/>
</svg>
